<svg width="32" height="22" viewBox="0 0 32 22" fill="none" xmlns="http://www.w3.org/2000/svg">
<path fill-rule="evenodd" clip-rule="evenodd" d="M2.875 21H19.125C20.1588 21 21 20.1588 21 19.125V2.875C21 1.84125 20.1588 1 19.125 1H2.875C1.84125 1 1 1.84125 1 2.875V19.125C1 20.1588 1.84125 21 2.875 21ZM2.25 2.875C2.25 2.53125 2.53125 2.25 2.875 2.25H19.125C19.4688 2.25 19.75 2.53125 19.75 2.875V19.125C19.75 19.4688 19.4688 19.75 19.125 19.75H2.875C2.53125 19.75 2.25 19.4688 2.25 19.125V2.875Z" fill="#9999A9"/>
<path d="M19.125 20.9H2.875V21.1H19.125V20.9ZM20.9 19.125C20.9 20.1035 20.1035 20.9 19.125 20.9V21.1C20.214 21.1 21.1 20.214 21.1 19.125H20.9ZM20.9 2.875V19.125H21.1V2.875H20.9ZM19.125 1.1C20.1035 1.1 20.9 1.89648 20.9 2.875H21.1C21.1 1.78602 20.214 0.9 19.125 0.9V1.1ZM2.875 1.1H19.125V0.9H2.875V1.1ZM1.1 2.875C1.1 1.89648 1.89648 1.1 2.875 1.1V0.9C1.78602 0.9 0.9 1.78602 0.9 2.875H1.1ZM1.1 19.125V2.875H0.9V19.125H1.1ZM2.875 20.9C1.89648 20.9 1.1 20.1035 1.1 19.125H0.9C0.9 20.214 1.78602 21.1 2.875 21.1V20.9ZM2.875 2.15C2.47602 2.15 2.15 2.47602 2.15 2.875H2.35C2.35 2.58648 2.58648 2.35 2.875 2.35V2.15ZM19.125 2.15H2.875V2.35H19.125V2.15ZM19.85 2.875C19.85 2.47602 19.524 2.15 19.125 2.15V2.35C19.4135 2.35 19.65 2.58648 19.65 2.875H19.85ZM19.85 19.125V2.875H19.65V19.125H19.85ZM19.125 19.85C19.524 19.85 19.85 19.524 19.85 19.125H19.65C19.65 19.4135 19.4135 19.65 19.125 19.65V19.85ZM2.875 19.85H19.125V19.65H2.875V19.85ZM2.15 19.125C2.15 19.524 2.47602 19.85 2.875 19.85V19.65C2.58648 19.65 2.35 19.4135 2.35 19.125H2.15ZM2.15 2.875V19.125H2.35V2.875H2.15Z" fill="#9999A9"/>
<path fill-rule="evenodd" clip-rule="evenodd" d="M24 4.5C24 6.42967 25.5703 8 27.5 8C29.4297 8 31 6.42967 31 4.5C31 2.57033 29.4297 1 27.5 1C25.5703 1 24 2.57033 24 4.5ZM25.1667 4.5C25.1667 3.21317 26.2132 2.16667 27.5 2.16667C28.7868 2.16667 29.8333 3.21317 29.8333 4.5C29.8333 5.78683 28.7868 6.83333 27.5 6.83333C26.2132 6.83333 25.1667 5.78683 25.1667 4.5Z" fill="#9999A9"/>
<path d="M27.5 7.9C25.6256 7.9 24.1 6.37444 24.1 4.5H23.9C23.9 6.48489 25.5151 8.1 27.5 8.1V7.9ZM30.9 4.5C30.9 6.37444 29.3744 7.9 27.5 7.9V8.1C29.4849 8.1 31.1 6.48489 31.1 4.5H30.9ZM27.5 1.1C29.3744 1.1 30.9 2.62556 30.9 4.5H31.1C31.1 2.5151 29.4849 0.9 27.5 0.9V1.1ZM24.1 4.5C24.1 2.62556 25.6256 1.1 27.5 1.1V0.9C25.5151 0.9 23.9 2.5151 23.9 4.5H24.1ZM27.5 2.06667C26.1579 2.06667 25.0667 3.15794 25.0667 4.5H25.2667C25.2667 3.2684 26.2684 2.26667 27.5 2.26667V2.06667ZM29.9333 4.5C29.9333 3.15794 28.8421 2.06667 27.5 2.06667V2.26667C28.7316 2.26667 29.7333 3.2684 29.7333 4.5H29.9333ZM27.5 6.93333C28.8421 6.93333 29.9333 5.84206 29.9333 4.5H29.7333C29.7333 5.7316 28.7316 6.73333 27.5 6.73333V6.93333ZM25.0667 4.5C25.0667 5.84206 26.1579 6.93333 27.5 6.93333V6.73333C26.2684 6.73333 25.2667 5.7316 25.2667 4.5H25.0667Z" fill="#9999A9"/>
<path d="M30.4167 16H24.5833C24.2613 16 24 15.776 24 15.5C24 15.224 24.2613 15 24.5833 15H30.4167C30.7387 15 31 15.224 31 15.5C31 15.776 30.7387 16 30.4167 16Z" fill="#9999A9" stroke="#9999A9" stroke-width="0.2"/>
<path d="M30.4167 20H24.5833C24.2613 20 24 19.776 24 19.5C24 19.224 24.2613 19 24.5833 19H30.4167C30.7387 19 31 19.224 31 19.5C31 19.776 30.7387 20 30.4167 20Z" fill="#9999A9" stroke="#9999A9" stroke-width="0.2"/>
<path d="M30.4167 12H24.5833C24.2613 12 24 11.776 24 11.5C24 11.224 24.2613 11 24.5833 11H30.4167C30.7387 11 31 11.224 31 11.5C31 11.776 30.7387 12 30.4167 12Z" fill="#9999A9" stroke="#9999A9" stroke-width="0.2"/>
<path fill-rule="evenodd" clip-rule="evenodd" d="M7.30471 14.9049C7.40757 14.9679 7.52457 15 7.64286 15C7.74057 15 7.83957 14.9769 7.93086 14.9319L15.6451 11.0747C15.8624 10.9654 16 10.743 16 10.5C16 10.257 15.8624 10.0346 15.6439 9.92529L7.92957 6.06815C7.73157 5.96786 7.49243 5.97943 7.30471 6.09515C7.11571 6.21343 7 6.42043 7 6.64286V14.3571C7 14.5796 7.11571 14.7866 7.30471 14.9049ZM8.28571 13.3183V7.683L13.9197 10.5013L8.28571 13.3183Z" fill="#9999A9"/>
<path d="M7.30471 14.9049L7.25166 14.9896L7.25248 14.9901L7.30471 14.9049ZM7.93086 14.9319L7.97507 15.0216L7.97558 15.0213L7.93086 14.9319ZM15.6451 11.0747L15.6899 11.1642L15.6901 11.1641L15.6451 11.0747ZM15.6439 9.92529L15.5991 10.0147L15.5991 10.0147L15.6439 9.92529ZM7.92957 6.06815L7.88439 6.15736L7.88485 6.15759L7.92957 6.06815ZM7.30471 6.09515L7.25224 6.01002L7.25166 6.01038L7.30471 6.09515ZM8.28571 7.683L8.33045 7.59357L8.18571 7.52117V7.683H8.28571ZM8.28571 13.3183H8.18571V13.4801L8.33044 13.4077L8.28571 13.3183ZM13.9197 10.5013L13.9644 10.5907L14.1433 10.5013L13.9645 10.4119L13.9197 10.5013ZM7.64286 14.9C7.54272 14.9 7.44384 14.8728 7.35695 14.8196L7.25248 14.9901C7.37131 15.0629 7.50643 15.1 7.64286 15.1V14.9ZM7.88664 14.8422C7.80878 14.8805 7.72488 14.9 7.64286 14.9V15.1C7.75627 15.1 7.87036 15.0732 7.97507 15.0216L7.88664 14.8422ZM15.6004 10.9853L7.88614 14.8424L7.97558 15.0213L15.6899 11.1642L15.6004 10.9853ZM15.9 10.5C15.9 10.7051 15.7839 10.893 15.6002 10.9854L15.6901 11.1641C15.941 11.0379 16.1 10.7809 16.1 10.5H15.9ZM15.5991 10.0147C15.784 10.1071 15.9 10.295 15.9 10.5H16.1C16.1 10.219 15.9409 9.962 15.6886 9.83584L15.5991 10.0147ZM7.88485 6.15759L15.5991 10.0147L15.6886 9.83584L7.97429 5.9787L7.88485 6.15759ZM7.35719 6.18027C7.51565 6.08259 7.71782 6.07299 7.88439 6.15735L7.97476 5.97894C7.74533 5.86273 7.46921 5.87627 7.25224 6.01002L7.35719 6.18027ZM7.1 6.64286C7.1 6.45526 7.19766 6.28012 7.35777 6.17991L7.25166 6.01038C7.03377 6.14674 6.9 6.3856 6.9 6.64286H7.1ZM7.1 14.3571V6.64286H6.9V14.3571H7.1ZM7.35777 14.8201C7.19766 14.7199 7.1 14.5447 7.1 14.3571H6.9C6.9 14.6144 7.03377 14.8533 7.25166 14.9896L7.35777 14.8201ZM8.18571 7.683V13.3183H8.38571V7.683H8.18571ZM13.9645 10.4119L8.33045 7.59357L8.24098 7.77244L13.875 10.5907L13.9645 10.4119ZM8.33044 13.4077L13.9644 10.5907L13.875 10.4118L8.24099 13.2288L8.33044 13.4077Z" fill="#9999A9"/>
</svg>
